<svg width="260" height="260" viewBox="0 0 260 260" fill="none" xmlns="http://www.w3.org/2000/svg">
<circle cx="130" cy="130" r="130" fill="#1F2937"/>
<path d="M120.599 157.2C120.599 159.813 119.619 162.1 117.659 164.06C115.699 166.02 113.413 167 110.799 167H61.7992V118L71.5992 108.2H61.7992V98.4H110.799C113.413 98.4 115.699 99.38 117.659 101.34C119.619 103.3 120.599 105.587 120.599 108.2V157.2ZM109.399 157.2V108.2H72.9992V165.6L81.3992 157.2H109.399ZM206.661 98.4L180.481 167H162.281L136.661 98.4H149.261L170.261 157.48H173.061L194.061 98.4H206.661Z" fill="white"/>
</svg>
